PathFileType	4	(X/Y/Z)	Patient4_TMGait_0pt8_01_right_17.trc.trc
DataRate	CameraRate	NumFrames	NumMarkers	Units	OrigDataRate	OrigDataStartFrame	OrigNumFrames
88.050314465409	88.050314465409	6	33	mm	88.050314465409	124	       141
Frame#	Time	Sacral			L.Shoulder			Chest			R.Shoulder			Neck			R.ASIS			L.ASIS			R.Thigh.Superior			R.Thigh.Lateral			R.Thigh.Inferior			R.Patella			L.Thigh.Superior			L.Thigh.Lateral			L.Thigh.Inferior			L.Patella			L.Shank.Superior			L.Shank.Lateral			L.Shank.Inferior			R.Shank.Superior			R.Shank.Lateral			R.Shank.Inferior			R.Heel			R.Midfoot.Superior			R.Midfoot.Lateral			R.Toe			L.Heel			L.Midfoot.Lateral			L.Midfoot.Superior			L.Toe			L.Elbow			L.Wrist			R.Elbow			R.Wrist			
		X1	Y1	Z1	X2	Y2	Z2	X3	Y3	Z3	X4	Y4	Z4	X5	Y5	Z5	X6	Y6	Z6	X7	Y7	Z7	X8	Y8	Z8	X9	Y9	Z9	X10	Y10	Z10	X11	Y11	Z11	X12	Y12	Z12	X13	Y13	Z13	X14	Y14	Z14	X15	Y15	Z15	X16	Y16	Z16	X17	Y17	Z17	X18	Y18	Z18	X19	Y19	Z19	X20	Y20	Z20	X21	Y21	Z21	X22	Y22	Z22	X23	Y23	Z23	X24	Y24	Z24	X25	Y25	Z25	X26	Y26	Z26	X27	Y27	Z27	X28	Y28	Z28	X29	Y29	Z29	X30	Y30	Z30	X31	Y31	Z31	X32	Y32	Z32	X33	Y33	Z33	

124	20.246928571429	923.079079511827	983.117127997563	417.474283088871	1115.437148251814	1420.568730094123	265.980490776656	1192.103811901405	1350.771231190722	440.278954514774	1077.195852137613	1416.504137995086	599.458940858649	1070.164000918038	1475.262824496556	418.803335202390	1140.254941635754	925.283097755182	560.397045169719	1152.391143599064	945.422595434900	284.985621543014	1219.839669419812	753.202136988983	534.754151562771	1170.065887478577	628.866431914209	602.716261637241	1265.173033617799	595.350836421587	529.849649188106	1295.856155454889	513.088236195092	545.244950326558	1137.920077152051	712.748018609351	309.031635095124	1014.676528811350	626.000048096971	241.637990762265	1063.563881304015	527.978061276857	309.215684690275	1042.400610550192	460.366310130242	317.458506828248	1001.205926164279	397.735600761252	308.690448905198	889.799539831366	305.403647473252	255.247848899163	911.780864056452	186.092348665013	327.626048100652	1282.867912070619	422.400391899319	555.117897570251	1227.583189292627	306.765667124557	612.169597778319	1302.428061037680	223.496863737905	564.633520856269	1214.993420014898	40.691281678464	528.925678234317	1374.058572294310	111.612786198229	578.544313116266	1292.961295964013	40.588029571771	609.662608870409	1496.190523251186	74.129663292664	615.870446367463	759.480233251672	45.012915645321	369.238239634629	833.742879603654	37.311891479988	289.958672639095	919.209209865915	95.963194398677	316.936301161094	1045.782048013043	39.536991700556	288.620360236065	1232.278501518631	1118.555190207664	105.223124243720	1476.235413364434	1162.137261432816	163.398619674434	891.070154602098	1126.103726851075	679.300801023510	813.793460591292	877.163937718803	684.202519697554	
125	20.258285714286	924.869988275981	981.466911245864	420.994922033702	1115.395047473558	1418.953863479087	268.237260535140	1192.770839007008	1349.954453419445	442.583370748932	1077.843890918026	1415.451393198646	601.943568103177	1070.580986691843	1473.985273765006	421.111679746443	1142.617782127382	923.917633182920	563.236243320606	1154.005946729600	944.013201257797	287.883412361858	1222.774636327741	751.756569659681	537.659891977582	1171.022202373439	626.940093516842	603.559642236046	1266.984875117902	594.027157052267	531.726329459497	1296.251334030745	510.549008559060	545.777346477790	1139.722346520496	711.321665086018	311.092449687774	1016.172894119464	624.694112111445	244.146239446442	1065.568518178226	526.131995930432	311.033352297971	1044.197471010236	457.495426388180	318.741085853824	1000.809682921724	395.711286154217	309.903655380383	886.691975567280	306.545994208366	256.380357675887	905.867983090351	186.177767159219	327.632491369876	1282.295035133414	419.409090932271	555.167381512256	1225.286257564672	304.504932711536	611.913959888053	1298.098009242179	220.187441271280	563.641983440406	1206.221972871857	40.568192683416	527.743965587551	1366.994407410597	107.532820545547	576.718919642726	1284.119122215553	39.202619263984	608.601005078261	1488.392801350368	67.213220135599	614.228456058179	750.616625762299	47.792567011342	368.675701454200	824.867709269277	38.395763245829	289.660643608067	911.116984343819	96.274707834773	316.365989957956	1036.785467275082	39.179766148250	288.480969502426	1231.062034834446	1116.235829901857	107.367498148869	1473.705364819625	1164.900624331718	166.046882464200	892.791770247423	1124.219463863917	681.131719215554	814.483170167714	875.547202297207	685.404394596391	
126	20.269642857143	926.619144478350	980.216993283193	424.590440185564	1115.410927662724	1417.709826470431	270.558244141404	1193.550464037104	1349.450887719541	444.924549593308	1078.705651997624	1414.709671285312	604.548191309490	1071.139724263998	1473.122643891284	423.518010687308	1144.950370923301	923.042562679873	566.134525021812	1155.547231461358	942.927992705741	290.837061857861	1225.768048724987	750.859031384816	540.549507366365	1172.358051015691	625.775229402622	604.715549277556	1268.913254478555	593.245686257197	533.661698950230	1296.868368004645	508.519318188112	546.626546825669	1141.901664066714	710.268103320308	313.297924997590	1018.348017567730	623.438778053617	246.806408681446	1068.683948934061	524.407370526919	312.861601366496	1047.238565783618	454.571275216586	319.835248877694	1001.334163302063	393.739041133369	311.012201836941	884.324778804714	308.164787934363	257.561544031006	900.523175483023	186.674866441873	327.473732986957	1281.781214058755	416.948893790276	555.486494685859	1223.075928720585	302.901287324779	612.246986530522	1293.440556665180	217.367093153840	562.985003752057	1196.737401623499	40.767075428292	527.026918068574	1359.229308598202	104.064120086508	575.355638039069	1274.623142184913	38.193587861712	607.964148741563	1479.927130017669	60.958568666698	612.930578826074	742.000328633936	51.612523926158	368.042780174344	816.100145064393	40.009219611101	289.321163122405	903.405340577883	96.733453010700	315.606341256154	1027.751209281945	38.840316881630	288.364104731334	1229.071751627539	1113.680955938006	109.838391476926	1470.783334701370	1166.179928209750	168.629992733929	895.749692111410	1121.768095583552	683.235505147755	817.143691045512	873.114893662542	687.018756551432	
127	20.281000000000	928.309742113641	979.413785359369	428.218680174700	1115.495389916080	1416.901661616972	272.931220956181	1194.426043958659	1349.296580507580	447.285660711295	1079.770363925373	1414.340803177199	607.237873615628	1071.819206494969	1472.718132204569	425.999628245952	1147.211213161345	922.704101723303	569.093363012488	1156.986836822160	942.214473203444	293.843121384838	1228.666585871264	750.483534577225	543.392242027486	1173.979302251242	625.360666038467	606.250733635982	1270.776009667185	592.928519366626	535.648868151997	1297.526150001408	506.999137375314	547.841559082092	1144.439118115276	709.631657155556	315.670615136315	1021.260806646685	622.245751240485	249.571735901252	1072.980096894484	522.852372772883	314.674441206859	1051.580699381168	451.663636976875	320.693118257571	1002.870417788218	391.874752574768	311.967534491725	882.822713058718	310.330410563163	258.774517790384	895.878637423662	187.678987271971	327.141502997244	1281.213135491912	415.037013997427	556.122227335555	1220.911325383027	301.916049533243	613.146745088002	1288.550356134225	215.095002892783	562.681585521361	1186.969965732933	41.154856148897	526.734362248613	1351.029996628410	101.372998362333	574.473476850965	1264.884549721719	37.534041772360	607.716784513773	1471.110387306306	55.752593301450	612.026647756090	733.771073442257	56.675851025112	367.355144372313	807.518926700316	42.321864963633	288.951152087326	896.175447593680	97.382043436671	314.666534822565	1018.678087030966	38.510741451295	288.286012230468	1226.275355643659	1110.964998049155	112.667497331346	1467.520844011274	1165.967177916264	171.148304253342	899.863278781199	1118.907323538592	685.613658180287	821.806082919098	869.984957952783	689.061663931690	
128	20.292357142857	929.928767189229	979.075427792474	431.862539237395	1115.637287242225	1416.566948075158	275.341068610184	1195.368194343740	1349.509256907931	449.643835277143	1081.014644070882	1414.387276770000	609.970062384547	1072.580561362849	1472.783682819569	428.528834055824	1149.370151678108	922.909416062929	572.116662619368	1158.294010490479	941.900220871380	296.900149755980	1231.326114202239	750.556475768714	546.179118342448	1175.727304066669	625.602181718942	608.173292432295	1272.388151514715	592.954693725456	537.683504809229	1298.016223008745	505.921883249588	549.417514553432	1147.323819281298	709.436234810591	318.221902597942	1024.973018835106	621.118506094690	252.388260150013	1078.512195128271	521.510090419810	316.443261520600	1057.259057311405	448.848696306247	321.287741309713	1005.518640325790	390.168791042790	312.734306689835	882.328490532672	313.090756037998	260.002055512311	892.080179930090	189.272685986812	326.646794413919	1280.432679500623	413.622572751463	557.077634585509	1218.656531688962	301.450250560087	614.507100233018	1283.444147912808	213.358041584674	562.707220527941	1177.213630636404	41.617815767056	526.785661193260	1342.584132256716	99.502930457177	574.032106185554	1255.176942080182	37.170572203093	607.786729732017	1462.156652836669	51.775054841978	611.515961312984	726.104811212895	63.168752976569	366.634582503713	799.237393357101	45.520021535623	288.564478214697	889.537589194050	98.276579684450	313.578881571468	1009.582310928164	38.170556975582	288.260695469836	1222.657051342422	1108.174531777382	115.877294016700	1463.951085692792	1164.251525111254	173.606546491487	905.024488446868	1115.811364352606	688.261274528556	828.488339389370	866.306323759991	691.538471409473	
129	20.303714285714	931.463382826362	979.189096209060	435.530871170944	1115.799054198788	1416.709212203015	277.770348934836	1196.336991177848	1350.085433222460	451.970335400545	1082.406295315338	1414.864825445093	612.699890616271	1073.371380353541	1473.297939065693	431.076468910835	1151.410164175129	923.626566920737	575.203957153117	1159.435626551948	941.989456222756	300.004865100197	1233.623400211700	750.957263082082	548.927056892307	1177.380255217979	626.335168477749	610.433769881582	1273.568762970894	593.173667754437	539.764306956422	1298.120783131111	505.172397495833	551.293224999539	1150.551503140034	709.685078625934	320.945611617758	1029.535803234006	620.057427338645	255.199082656106	1085.304787736293	520.419992816649	318.140307069554	1064.277751163986	446.207685234797	321.621474216967	1009.371544365601	388.665534941917	313.300855650894	882.989750980125	316.466415867508	261.228892910144	889.276133306848	191.519876468356	326.022246724303	1279.258883725241	412.606481448619	558.314714894290	1216.120170622711	301.365217540525	616.165264211711	1278.087813664129	212.086594368181	563.005598077592	1167.635177752140	42.070495147813	527.080760530204	1334.012958522224	98.389391303601	573.951712441091	1245.649796331924	37.034230123129	608.083168416777	1453.192287455472	49.015036367061	611.353966500133	719.209994962652	71.241784261108	365.908906023164	791.406051531176	49.793761594844	288.177639975941	883.607028165777	99.489603315723	312.399299363565	1000.503687196957	37.787569603432	288.296678959414	1218.221877555627	1105.399781289097	119.477716674363	1460.084704092823	1161.014101772841	176.014233799851	911.106609124580	1112.652971719884	691.169460264848	837.197642358738	862.249673738856	694.442942245301	
